<?xml version="1.0" encoding="utf-8"?>
<!-- Generator: Adobe Illustrator 16.0.0, SVG Export Plug-In . SVG Version: 6.00 Build 0)  -->
<!DOCTYPE svg PUBLIC "-//W3C//DTD SVG 1.1//EN" "http://www.w3.org/Graphics/SVG/1.1/DTD/svg11.dtd">
<svg version="1.1" id="Layer_1" xmlns="http://www.w3.org/2000/svg" xmlns:xlink="http://www.w3.org/1999/xlink" x="0px" y="0px"
	 width="337.445px" height="344.199px" viewBox="0 0 337.445 344.199" enable-background="new 0 0 337.445 344.199"
	 xml:space="preserve">
<g>
	<g>
		<path fill="#1A1A1A" d="M213.208,193.883H321.41v22.732H239.52v39.369h75.785v21.473H239.52v43.998h83.362v22.735H213.208V193.883
			z"/>
	</g>
	<g>
		<path fill="#1A1A1A" d="M0,0h26.317v59.79h68.416V0h26.316v150.309H94.733V82.523H26.317v67.786H0V0"/>
	</g>
	<g>
		<path fill="#1A1A1A" d="M254.921,91.365L198.501,0h30.524l39.789,67.364L307.971,0h29.475L281.24,91.365v58.943h-26.318
			L254.921,91.365L254.921,91.365z"/>
	</g>
	<g>
		<path fill="#1A1A1A" d="M0.635,193.883h62.313c11.505,0,21.474,1.967,29.89,5.895c8.425,3.935,15.3,9.302,20.63,16.104
			c5.332,6.81,9.297,14.769,11.895,23.896c2.597,9.123,3.895,18.875,3.895,29.265c0,10.386-1.298,20.14-3.895,29.262
			c-2.598,9.122-6.563,17.089-11.895,23.896c-5.331,6.809-12.206,12.177-20.63,16.104c-8.416,3.932-18.385,5.896-29.89,5.896H0.635
			V193.883z M26.947,322.72H52.84c10.244,0,18.635-1.372,25.158-4.106c6.527-2.733,11.647-6.524,15.368-11.366
			c3.72-4.844,6.244-10.524,7.578-17.054c1.336-6.524,2.001-13.575,2.001-21.152c0-7.579-0.665-14.636-2.001-21.158
			c-1.334-6.527-3.857-12.209-7.578-17.053c-3.72-4.848-8.84-8.637-15.368-11.368c-6.523-2.737-14.914-4.104-25.158-4.104H26.947
			V322.72z"/>
	</g>
</g>
</svg>
