<?xml version="1.0" encoding="utf-8"?>
<!-- Generator: Adobe Illustrator 16.0.0, SVG Export Plug-In . SVG Version: 6.00 Build 0)  -->
<!DOCTYPE svg PUBLIC "-//W3C//DTD SVG 1.1//EN" "http://www.w3.org/Graphics/SVG/1.1/DTD/svg11.dtd">
<svg version="1.1" id="Layer_1" xmlns="http://www.w3.org/2000/svg" xmlns:xlink="http://www.w3.org/1999/xlink" x="0px" y="0px"
	 width="280.568px" height="204.805px" viewBox="0 0 280.568 204.805" enable-background="new 0 0 280.568 204.805"
	 xml:space="preserve">
<g>
	<g>
		<g>
			<path fill="#070808" d="M266.942,186.178h13.442v2.818h-10.173v4.879h9.416v2.66h-9.416v5.45h10.356v2.819h-13.626V186.178z"/>
		</g>
		<g>
			<path fill="#070808" d="M188.063,186.178h3.269v7.41h8.499v-7.41h3.271v18.626h-3.271v-8.4h-8.499v8.4h-3.269V186.178z"/>
		</g>
		<g>
			<path fill="#070808" d="M219.731,197.5l-7.008-11.322h3.793l4.941,8.35l4.865-8.35h3.659L223,197.5v7.304h-3.27V197.5z"/>
		</g>
		<g>
			<path fill="#070808" d="M240.533,186.178h7.743c1.428,0,2.668,0.244,3.713,0.732c1.046,0.487,1.901,1.152,2.562,1.997
				c0.664,0.843,1.155,1.828,1.479,2.957c0.324,1.133,0.484,2.34,0.484,3.626c0,1.29-0.16,2.497-0.484,3.627
				c-0.324,1.13-0.815,2.118-1.479,2.961c-0.66,0.843-1.516,1.509-2.562,1.996c-1.045,0.487-2.285,0.73-3.713,0.73h-7.743V186.178z
				 M243.803,202.143h3.217c1.273,0,2.315-0.167,3.125-0.506c0.812-0.339,1.447-0.809,1.91-1.411
				c0.461-0.598,0.775-1.303,0.941-2.113c0.165-0.808,0.248-1.681,0.248-2.622c0-0.938-0.083-1.812-0.248-2.622
				c-0.166-0.808-0.48-1.511-0.941-2.111c-0.463-0.6-1.098-1.07-1.91-1.409c-0.81-0.34-1.852-0.509-3.125-0.509h-3.217V202.143z"/>
		</g>
	</g>
	<g>
		<path fill="#070808" d="M93.551,186.627C41.966,186.627,0,144.767,0,93.313C0,41.861,41.966,0,93.551,0
			C145.133,0,187.1,41.861,187.1,93.313c0,38.291-23.24,71.269-56.393,85.637C119.311,183.888,106.747,186.627,93.551,186.627z
			 M93.551,4.682c-48.996,0-88.857,39.759-88.857,88.631c0,48.871,39.861,88.632,88.857,88.632c12.443,0,24.299-2.566,35.064-7.194
			c31.609-13.594,53.792-44.98,53.792-81.438C182.408,44.441,142.547,4.682,93.551,4.682z"/>
	</g>
	<g>
		<path d="M141.331,44.837c0,1.001-4.113,16.875-12.332,47.621c-8.22,30.986-12.809,47.527-13.764,49.625
			c-0.525,1.24-1.291,1.859-2.294,1.859c-1.769,0-2.652-0.811-2.652-2.432c0-0.763,0.829-4.34,2.49-10.731
			c2.153-7.8,5.359-19.476,9.62-35.031H63.32l-8.364,30.892c-0.67,3.576-2.082,8.724-4.234,15.443
			c-0.526,1.24-1.292,1.859-2.296,1.859c-1.77,0-2.654-0.811-2.654-2.432c0-1.001,4.109-16.875,12.33-47.621
			c8.219-30.985,12.807-47.526,13.764-49.625c0.524-1.239,1.291-1.859,2.294-1.859c1.767,0,2.651,0.812,2.651,2.431
			c0,0.858-1.002,5.078-3.004,12.657c-2.061,7.39-5.102,18.448-9.124,33.177h59.079l8.381-30.964
			c0.671-3.573,2.083-8.722,4.234-15.443c0.525-1.239,1.291-1.859,2.296-1.859C140.443,42.406,141.331,43.218,141.331,44.837z"/>
	</g>
	<g>
		<path d="M152.455,199.422c0,1.479-0.524,2.742-1.57,3.786c-1.048,1.044-2.315,1.565-3.809,1.565l-4.894-0.013
			c-0.305,0-0.458-0.151-0.458-0.455v-17.626c0-0.304,0.153-0.457,0.458-0.457h4.907c1.204,0,2.235,0.428,3.095,1.287
			c0.861,0.857,1.289,1.886,1.289,3.088c0,1.758-0.775,3.046-2.329,3.864c0.996,0.417,1.795,1.078,2.403,1.978
			C152.153,197.34,152.455,198.334,152.455,199.422z M150.557,190.603c0-0.948-0.34-1.761-1.02-2.438
			c-0.682-0.678-1.496-1.015-2.448-1.015h-4.451v6.905h4.451c0.952,0,1.767-0.337,2.448-1.017
			C150.217,192.361,150.557,191.549,150.557,190.603z M151.54,199.422c0-1.224-0.438-2.27-1.309-3.137
			c-0.873-0.868-1.92-1.303-3.142-1.303h-4.451v8.866h4.451c1.229,0,2.28-0.434,3.147-1.301
			C151.104,201.678,151.54,200.636,151.54,199.422z"/>
		<path d="M173.897,186.679c0,0.097-0.033,0.186-0.104,0.275l-6.768,8.693v8.657c0,0.303-0.152,0.455-0.457,0.455
			s-0.457-0.151-0.457-0.455v-8.657l-6.781-8.693c-0.07-0.089-0.104-0.179-0.104-0.275c0-0.313,0.156-0.47,0.47-0.47
			c0.14,0,0.257,0.066,0.352,0.197l6.511,8.33l6.506-8.336c0.097-0.125,0.216-0.19,0.357-0.19
			C173.741,186.208,173.897,186.365,173.897,186.679z"/>
	</g>
</g>
<g>
	<g>
		<path fill="#AE9ECD" d="M-583.952,190.76c0.684,0,2.071-1.037,0.768-1.037C-583.868,189.723-585.255,190.76-583.952,190.76
			L-583.952,190.76z"/>
	</g>
</g>
<text transform="matrix(1 0 0 1 1.7896 311.8071)" font-family="'Graphik-Light'" font-size="24">About</text>
<text transform="matrix(1 0 0 1 248.5234 311.8071)" font-family="'Graphik-Light'" font-size="24">Publications</text>
<text transform="matrix(1 0 0 1 558.9731 311.8071)" font-family="'Graphik-Light'" font-size="24">Blog</text>
<g>
	<rect x="281.79" y="381.933" fill="none" width="626" height="376.19"/>
	<text transform="matrix(1 0 0 1 281.7896 400.4844)"><tspan x="0" y="0" font-family="'Graphik-Light'" font-size="24">H by Hyde aims to showcase independent publications </tspan><tspan x="0" y="28.8" font-family="'Graphik-Light'" font-size="24">by new and </tspan><tspan x="0" y="57.6" font-family="'Graphik-Light'" font-size="24">established creatives. From Art to Poetry we bring you </tspan><tspan x="0" y="86.4" font-family="'Graphik-Light'" font-size="24">works from across the globe all the way to our pop-up </tspan><tspan x="0" y="115.2" font-family="'Graphik-Light'" font-size="24">bookshop launching at the end of Summer 2015 in East </tspan><tspan x="0" y="144" font-family="'Graphik-Light'" font-size="24">London.</tspan><tspan x="0" y="201.6" font-family="'Graphik-Light'" font-size="24">The intention for the project is to bring together an eclec</tspan><tspan x="614.582" y="201.6" font-family="'Graphik-Light'" font-size="24">-</tspan><tspan x="0" y="230.4" font-family="'Graphik-Light'" font-size="24">tic mix of creativity and encourage interdisciplinary dis</tspan><tspan x="590.506" y="230.4" font-family="'Graphik-Light'" font-size="24">-</tspan><tspan x="0" y="259.2" font-family="'Graphik-Light'" font-size="24">course between emerging artists, </tspan><tspan x="0" y="288" font-family="'Graphik-Light'" font-size="24">designers and writers. To further this creative exchange, </tspan><tspan x="0" y="316.8" font-family="'Graphik-Light'" font-size="24">the bookshop will hold talks, workshops and mixers, en</tspan><tspan x="593.102" y="316.8" font-family="'Graphik-Light'" font-size="24">-</tspan><tspan x="0" y="345.6" font-family="'Graphik-Light'" font-size="24">gaging the reader with our brimming pool of talent.</tspan></text>
</g>
<text transform="matrix(1 0 0 1 818.3267 311.8071)" font-family="'Graphik-Light'" font-size="24">Contact</text>
</svg>
