<?xml version="1.0" encoding="utf-8"?>
<!-- Generator: Adobe Illustrator 16.0.0, SVG Export Plug-In . SVG Version: 6.00 Build 0)  -->
<!DOCTYPE svg PUBLIC "-//W3C//DTD SVG 1.1//EN" "http://www.w3.org/Graphics/SVG/1.1/DTD/svg11.dtd">
<svg version="1.1" id="Layer_1" xmlns="http://www.w3.org/2000/svg" xmlns:xlink="http://www.w3.org/1999/xlink" x="0px" y="0px"
	 width="365px" height="359px" viewBox="-19.778 -9.404 365 359" enable-background="new -19.778 -9.404 365 359"
	 xml:space="preserve">
<g>
	<g>
		<path fill="#F9EC23" d="M213.208,193.883H321.41v22.732h-81.891v39.369h75.785v21.473h-75.785v43.998h83.363v22.735H213.208
			V193.883z"/>
	</g>
	<g>
		<path fill="#F9EC23" d="M0,0h26.317v59.79h68.416V0h26.316v150.309H94.733V82.523H26.317v67.786H0V0"/>
	</g>
	<g>
		<path fill="#F9EC23" d="M254.921,91.365L198.501,0h30.525l39.788,67.364L307.97,0h29.475L281.24,91.365v58.943h-26.318V91.365
			L254.921,91.365z"/>
	</g>
	<g>
		<path fill="#F9EC23" d="M0.635,193.883h62.313c11.505,0,21.474,1.967,29.89,5.894c8.425,3.934,15.3,9.301,20.63,16.104
			c5.332,6.809,9.297,14.768,11.895,23.895c2.597,9.123,3.895,18.875,3.895,29.264c0,10.386-1.298,20.14-3.895,29.262
			c-2.598,9.122-6.563,17.089-11.895,23.894c-5.331,6.809-12.206,12.177-20.63,16.104c-8.416,3.93-18.385,5.895-29.89,5.895H0.635
			V193.883z M26.947,322.72H52.84c10.244,0,18.635-1.372,25.158-4.108c6.527-2.733,11.647-6.524,15.368-11.366
			c3.72-4.844,6.244-10.526,7.578-17.053c1.336-6.525,2.001-13.576,2.001-21.153c0-7.579-0.665-14.636-2.001-21.158
			c-1.334-6.528-3.857-12.209-7.578-17.053c-3.72-4.847-8.84-8.635-15.368-11.368c-6.523-2.738-14.914-4.104-25.158-4.104H26.947
			V322.72z"/>
	</g>
</g>
</svg>
