<?xml version="1.0" encoding="utf-8"?>
<!-- Generator: Adobe Illustrator 16.0.0, SVG Export Plug-In . SVG Version: 6.00 Build 0)  -->
<!DOCTYPE svg PUBLIC "-//W3C//DTD SVG 1.1//EN" "http://www.w3.org/Graphics/SVG/1.1/DTD/svg11.dtd">
<svg version="1.1" id="Layer_1" xmlns="http://www.w3.org/2000/svg" xmlns:xlink="http://www.w3.org/1999/xlink" x="0px" y="0px"
	 width="247.675px" height="224.141px" viewBox="0 0 247.675 224.141" enable-background="new 0 0 247.675 224.141"
	 xml:space="preserve">
<g>
	<g>
		<g>
			<path fill="#070808" d="M272.052-221.307h13.442v2.818h-10.173v4.879h9.416v2.66h-9.416v5.45h10.356v2.819h-13.626V-221.307z"/>
		</g>
		<g>
			<path fill="#070808" d="M193.173-221.307h3.269v7.41h8.499v-7.41h3.271v18.626h-3.271v-8.4h-8.499v8.4h-3.269V-221.307z"/>
		</g>
		<g>
			<path fill="#070808" d="M224.841-209.985l-7.008-11.322h3.793l4.941,8.35l4.865-8.35h3.659l-6.981,11.322v7.304h-3.27V-209.985z"
				/>
		</g>
		<g>
			<path fill="#070808" d="M245.643-221.307h7.743c1.428,0,2.668,0.244,3.713,0.732c1.046,0.487,1.901,1.152,2.562,1.997
				c0.664,0.843,1.155,1.828,1.479,2.957c0.324,1.133,0.484,2.34,0.484,3.626c0,1.29-0.16,2.497-0.484,3.627
				c-0.324,1.13-0.815,2.118-1.479,2.961c-0.66,0.843-1.516,1.509-2.562,1.996c-1.045,0.487-2.285,0.73-3.713,0.73h-7.743V-221.307z
				 M248.914-205.343h3.217c1.273,0,2.315-0.167,3.125-0.506c0.812-0.339,1.447-0.809,1.91-1.411
				c0.461-0.598,0.775-1.303,0.941-2.113c0.165-0.808,0.248-1.681,0.248-2.622c0-0.938-0.083-1.812-0.248-2.622
				c-0.166-0.808-0.48-1.511-0.941-2.111c-0.463-0.6-1.098-1.07-1.91-1.409c-0.81-0.34-1.852-0.509-3.125-0.509h-3.217V-205.343z"/>
		</g>
	</g>
	<g>
		<path fill="#070808" d="M98.662-220.858c-51.585,0-93.551-41.86-93.551-93.314c0-51.452,41.966-93.313,93.551-93.313
			c51.582,0,93.549,41.861,93.549,93.313c0,38.291-23.24,71.269-56.393,85.637C124.421-223.597,111.857-220.858,98.662-220.858z
			 M98.662-402.803c-48.996,0-88.857,39.759-88.857,88.631c0,48.871,39.861,88.632,88.857,88.632
			c12.443,0,24.299-2.566,35.064-7.194c31.609-13.594,53.792-44.98,53.792-81.438C187.518-363.044,147.658-402.803,98.662-402.803z"
			/>
	</g>
	<g>
		<path d="M146.441-362.648c0,1.001-4.113,16.875-12.332,47.621c-8.22,30.986-12.809,47.527-13.764,49.625
			c-0.525,1.24-1.291,1.859-2.294,1.859c-1.769,0-2.652-0.811-2.652-2.432c0-0.763,0.829-4.34,2.49-10.731
			c2.153-7.8,5.359-19.476,9.62-35.031H68.431l-8.364,30.892c-0.67,3.576-2.082,8.724-4.234,15.443
			c-0.526,1.24-1.292,1.859-2.296,1.859c-1.77,0-2.654-0.811-2.654-2.432c0-1.001,4.109-16.875,12.33-47.621
			c8.219-30.985,12.807-47.526,13.764-49.625c0.524-1.239,1.291-1.859,2.294-1.859c1.767,0,2.651,0.812,2.651,2.431
			c0,0.858-1.002,5.078-3.004,12.657c-2.061,7.39-5.102,18.448-9.124,33.177h59.079l8.381-30.964
			c0.671-3.573,2.083-8.722,4.234-15.443c0.525-1.239,1.291-1.859,2.296-1.859C145.553-365.079,146.441-364.268,146.441-362.648z"/>
	</g>
	<g>
		<path d="M157.565-208.063c0,1.479-0.524,2.742-1.57,3.786c-1.048,1.044-2.315,1.565-3.809,1.565l-4.894-0.013
			c-0.305,0-0.458-0.151-0.458-0.455v-17.626c0-0.304,0.153-0.457,0.458-0.457h4.907c1.204,0,2.235,0.428,3.095,1.287
			c0.861,0.857,1.289,1.886,1.289,3.088c0,1.758-0.775,3.046-2.329,3.864c0.996,0.417,1.795,1.078,2.403,1.978
			C157.263-210.145,157.565-209.151,157.565-208.063z M155.667-216.883c0-0.948-0.34-1.761-1.02-2.438
			c-0.682-0.678-1.496-1.015-2.448-1.015h-4.451v6.905h4.451c0.952,0,1.767-0.337,2.448-1.017
			C155.328-215.125,155.667-215.937,155.667-216.883z M156.65-208.063c0-1.224-0.438-2.27-1.309-3.137
			c-0.873-0.868-1.92-1.303-3.142-1.303h-4.451v8.866h4.451c1.229,0,2.28-0.434,3.147-1.301
			C156.214-205.808,156.65-206.85,156.65-208.063z"/>
		<path d="M179.007-220.807c0,0.097-0.033,0.186-0.104,0.275l-6.768,8.693v8.657c0,0.303-0.152,0.455-0.457,0.455
			s-0.457-0.151-0.457-0.455v-8.657l-6.781-8.693c-0.07-0.089-0.104-0.179-0.104-0.275c0-0.313,0.156-0.47,0.47-0.47
			c0.14,0,0.257,0.066,0.352,0.197l6.511,8.33l6.506-8.336c0.097-0.125,0.216-0.19,0.357-0.19
			C178.851-221.277,179.007-221.12,179.007-220.807z"/>
	</g>
</g>
<g>
	<g>
		<path fill="#AE9ECD" d="M-578.841-216.726c0.684,0,2.071-1.037,0.768-1.037C-578.757-217.763-580.145-216.726-578.841-216.726
			L-578.841-216.726z"/>
	</g>
</g>
<text transform="matrix(1 0 0 1 6.8999 -95.6782)" font-family="'Graphik-Light'" font-size="24">About</text>
<text transform="matrix(1 0 0 1 253.6338 -95.6782)" font-family="'Graphik-Light'" font-size="24">Publications</text>
<text transform="matrix(1 0 0 1 564.0835 -95.6782)" font-family="'Graphik-Light'" font-size="24">Blog</text>
<rect x="286.9" fill="none" width="626" height="122.637"/>
<text transform="matrix(1 0 0 1 286.8999 13.9141)"><tspan x="0" y="0" font-family="'Graphik-Light'" font-size="18">H by HYDE wants you! Looking for budding PR people to creatives looking </tspan><tspan x="0" y="21.6" font-family="'Graphik-Light'" font-size="18">for a way to get work out in the world. We will soon be launching a Kick</tspan><tspan x="574.857" y="21.6" font-family="'Graphik-Light'" font-size="18">-</tspan><tspan x="0" y="43.2" font-family="'Graphik-Light'" font-size="18">starter campaign so many rolls for people to come have a go at. </tspan><tspan x="0" y="86.4" font-family="'Graphik-Light'" font-size="18">Please contact at info@hydecreative.com </tspan></text>
<text transform="matrix(1 0 0 1 823.437 -95.6782)" font-family="'Graphik-Light'" font-size="24">Contact</text>
<g>
	<g>
		<g>
			<path fill="#F9ED23" d="M152.808,126.257h70.462v14.805h-53.328v25.638h49.352v13.982h-49.352v28.651h54.287v14.807h-71.421
				V126.257z"/>
		</g>
		<g>
			<path fill="#F9ED23" d="M13.965,0h17.138v38.936h44.554V0h17.137v97.882H75.657V53.739H31.103v44.143H13.965V0z"/>
		</g>
		<g>
			<path fill="#F9ED23" d="M179.971,59.498L143.231,0h19.879l25.909,43.868L214.518,0h19.193l-36.602,59.498v38.385h-17.138V59.498z
				"/>
		</g>
		<g>
			<path fill="#F9ED23" d="M14.379,126.257h40.58c7.492,0,13.983,1.282,19.464,3.84c5.486,2.56,9.963,6.055,13.435,10.486
				c3.473,4.434,6.054,9.616,7.747,15.56c1.69,5.941,2.536,12.292,2.536,19.056c0,6.764-0.846,13.116-2.536,19.055
				c-1.693,5.941-4.274,11.128-7.747,15.561c-3.472,4.434-7.948,7.929-13.435,10.486c-5.481,2.56-11.972,3.839-19.464,3.839h-40.58
				V126.257z M31.514,210.158h16.862c6.67,0,12.134-0.894,16.383-2.676c4.25-1.781,7.584-4.25,10.007-7.402
				c2.422-3.154,4.066-6.854,4.935-11.105c0.871-4.251,1.303-8.841,1.303-13.776c0-4.936-0.433-9.53-1.303-13.779
				c-0.868-4.25-2.512-7.95-4.935-11.104s-5.757-5.622-10.007-7.402c-4.249-1.784-9.712-2.673-16.383-2.673H31.514V210.158z"/>
		</g>
	</g>
	<g>
		<g>
			<g>
				<path fill="#070808" d="M235.646,180.744h11.867v2.488h-8.981v4.307h8.312v2.349h-8.312v4.812h9.143v2.488h-12.029V180.744z"/>
			</g>
			<g>
				<path fill="#070808" d="M166.015,180.744h2.886v6.542h7.501v-6.542h2.888v16.443h-2.888v-7.416h-7.501v7.416h-2.886V180.744z"/>
			</g>
			<g>
				<path fill="#070808" d="M193.97,190.739l-6.186-9.995h3.348l4.362,7.371l4.294-7.371h3.231l-6.164,9.995v6.448h-2.886V190.739z"
					/>
			</g>
			<g>
				<path fill="#070808" d="M212.333,180.744h6.835c1.26,0,2.355,0.216,3.277,0.647c0.924,0.429,1.679,1.017,2.262,1.764
					c0.586,0.743,1.019,1.614,1.305,2.61c0.286,1,0.428,2.065,0.428,3.2c0,1.14-0.142,2.206-0.428,3.204
					c-0.286,0.997-0.719,1.869-1.305,2.614c-0.583,0.743-1.338,1.331-2.262,1.761c-0.922,0.431-2.017,0.645-3.277,0.645h-6.835
					V180.744z M215.22,194.837h2.84c1.124,0,2.045-0.148,2.759-0.446c0.717-0.3,1.277-0.714,1.686-1.245
					c0.407-0.529,0.685-1.15,0.831-1.865c0.146-0.714,0.219-1.485,0.219-2.316c0-0.827-0.073-1.6-0.219-2.313
					s-0.424-1.334-0.831-1.864c-0.409-0.529-0.969-0.945-1.686-1.243c-0.714-0.302-1.635-0.45-2.759-0.45h-2.84V194.837z"/>
			</g>
		</g>
		<g>
			<path fill="#070808" d="M82.583,181.141C37.046,181.141,0,144.188,0,98.766c0-45.42,37.046-82.374,82.583-82.374
				c45.535,0,82.581,36.954,82.581,82.374c0,33.802-20.516,62.914-49.781,75.599C105.324,178.723,94.232,181.141,82.583,181.141z
				 M82.583,20.526c-43.252,0-78.439,35.098-78.439,78.24c0,43.141,35.188,78.242,78.439,78.242c10.985,0,21.45-2.266,30.954-6.352
				c27.903-12,47.485-39.707,47.485-71.89C161.023,55.624,125.836,20.526,82.583,20.526z"/>
		</g>
		<g>
			<path d="M124.762,55.974c0,0.884-3.631,14.896-10.886,42.038c-7.256,27.354-11.307,41.956-12.15,43.808
				c-0.464,1.095-1.14,1.642-2.025,1.642c-1.561,0-2.341-0.715-2.341-2.146c0-0.674,0.732-3.833,2.198-9.474
				c1.901-6.885,4.731-17.192,8.492-30.924H55.896l-7.383,27.271c-0.591,3.157-1.838,7.7-3.738,13.633
				c-0.465,1.095-1.14,1.642-2.027,1.642c-1.562,0-2.343-0.715-2.343-2.146c0-0.885,3.627-14.897,10.884-42.039
				C58.545,71.923,62.596,57.32,63.44,55.468c0.463-1.093,1.14-1.641,2.025-1.641c1.56,0,2.341,0.717,2.341,2.146
				c0,0.757-0.885,4.483-2.652,11.173C63.335,73.67,60.65,83.433,57.1,96.434h52.153l7.398-27.333
				c0.592-3.155,1.839-7.7,3.738-13.633c0.464-1.093,1.14-1.641,2.027-1.641C123.978,53.827,124.762,54.544,124.762,55.974z"/>
		</g>
		<g>
			<path d="M134.582,192.435c0,1.306-0.463,2.421-1.386,3.342c-0.925,0.922-2.044,1.383-3.362,1.383l-4.32-0.012
				c-0.269,0-0.404-0.134-0.404-0.402v-15.559c0-0.269,0.135-0.403,0.404-0.403h4.332c1.063,0,1.973,0.377,2.732,1.134
				c0.76,0.757,1.138,1.666,1.138,2.726c0,1.552-0.685,2.689-2.056,3.412c0.879,0.367,1.584,0.952,2.122,1.747
				C134.315,190.597,134.582,191.475,134.582,192.435z M132.907,184.651c0-0.838-0.3-1.555-0.9-2.152
				c-0.602-0.598-1.32-0.896-2.161-0.896h-3.929v6.095h3.929c0.841,0,1.56-0.296,2.161-0.896
				C132.606,186.203,132.907,185.485,132.907,184.651z M133.774,192.435c0-1.081-0.386-2.003-1.155-2.769
				c-0.771-0.766-1.695-1.15-2.773-1.15h-3.929v7.826h3.929c1.085,0,2.013-0.383,2.778-1.148
				C133.389,194.427,133.774,193.508,133.774,192.435z"/>
			<path d="M153.509,181.187c0,0.084-0.029,0.164-0.091,0.243l-5.974,7.674v7.642c0,0.268-0.135,0.402-0.404,0.402
				s-0.403-0.134-0.403-0.402v-7.642l-5.985-7.674c-0.062-0.08-0.091-0.159-0.091-0.243c0-0.278,0.138-0.416,0.415-0.416
				c0.124,0,0.227,0.059,0.311,0.174l5.747,7.354l5.743-7.36c0.086-0.11,0.191-0.167,0.315-0.167
				C153.371,180.771,153.509,180.909,153.509,181.187z"/>
		</g>
	</g>
</g>
</svg>
