<?xml version="1.0" encoding="utf-8"?>
<!-- Generator: Adobe Illustrator 16.0.0, SVG Export Plug-In . SVG Version: 6.00 Build 0)  -->
<!DOCTYPE svg PUBLIC "-//W3C//DTD SVG 1.1//EN" "http://www.w3.org/Graphics/SVG/1.1/DTD/svg11.dtd">
<svg version="1.1" id="Layer_1" xmlns="http://www.w3.org/2000/svg" xmlns:xlink="http://www.w3.org/1999/xlink" x="0px" y="0px"
	 width="338.639px" height="383.463px" viewBox="125 224.445 338.639 383.463" enable-background="new 125 224.445 338.639 383.463"
	 xml:space="preserve">
<g>
	<path d="M430,249.89c15.895,1.262,25.615,15.41,20,32c3.01,5.99,5.613,12.386,8,19c-3.523,21.144-11.92,37.413-36,38
		c-3.268,5.974-14.58,11.467-23,6c-6.684,3.784-13.969,9.56-25,6c0.162,1.172,1.824,0.843,3,1c-14.055,1.383-25.404-8.592-26-24
		c-21.209-4.939-25.742-44.936-4-53c-7.152-11.94,1.938-25.254,16-25C369.816,222.906,422.917,221.396,430,249.89z M447,263.89
		c-4.246-7.753-15.314-8.686-23-13c-5.703-25.216-54.146-21.633-58,3c-13.496-6.734-23.141,13.399-13,23
		c-25.182,4.689-17.963,44.862,3,49c-4.404,9.097,5.592,20.145,13,24c11.807-0.449,19.361-1.298,30-8c9.402,8.28,18.652-2.106,24-7
		c29.705,2.18,36.859-35.933,22-53C448.556,276.554,446.828,271.931,447,263.89z"/>
	<path d="M196,288.89c0.162,1.172,1.823,0.844,3,1c-7.462,14.872-23.798,20.869-36,31c-10.159,28.507-20.994,56.339-28,88
		c-0.55,2.217,1.91,1.424,2,3c-4.153,7.809,0.597,18.682,0,29c4.336,4.33,6.631,10.701,11,15c-3.738,3.02-5.058-4.902-8-6
		c-3.252,1.814,2.102,6.033-1,8c-4.581-9.98-10.022-18.387-7-33c-1.496-2.773-4.09,1.734-5-1c-0.34-3.674,5.74-0.926,4-6
		c-1.382-2.915-4.618,5.914-6,3c9.167-10.5,8.45-30.884,15-44c-0.31-1.357-2.504-0.83-4-1c10.362-16.006,11.457-36.026,20-50
		c8.35-13.658,23.303-19.284,35-30c0.689-2.689-2.067-1.933-3-3c16.824-17.509,29.92-38.746,49-54c3,0,6,0,9,0
		c-8,3.938-12.995,14.188-19,18c-0.795,0.505-2.292-0.732-2-1C217.122,263.128,209.525,280.152,196,288.89z"/>
	<path d="M395,244.89c1.191,2.971,3.338,9.238,0,11C390.599,255.119,393.642,246.372,395,244.89z"/>
	<path d="M335,258.89c1.969,14.758-19.717,17.307-17,0C321.56,254.336,331.716,253.618,335,258.89z M322,265.89
		c3.945,2.048,6.553,1.934,9-1c0.59-3.589-1.162-4.838-2-7C322.367,257.096,320.476,261.131,322,265.89z"/>
	<path d="M372,266.89c-3.779,0.112-5.377-1.957-6-5C368.496,259.895,371.908,263.387,372,266.89z"/>
	<path d="M402,300.89c-4.131-7.487,4.777-10.54,7-15c2.188-17.088-10.525-24.463-22-21c-11.674,3.523-14.994,22.951-1,27
		c0.766,2.359,1.971,6.911,0,9c1.441,4.893,9.801,2.866,14,5c-0.59-5.409-11.408-0.59-12-6c5.607,0.392,10.416,1.584,15,3
		c-0.84,2.492-1.309,5.357-1,9c-3.314,0.634-13.283,0.203-17-2c4.975-15.33-9.062-16.771-11-24c-7.098-26.488,35.602-31.273,40-10
		C416.72,289.051,404.912,291.136,402,300.89z M400,309.89c-2.145-3.522-9.193-2.139-13-4C387.15,311.407,396.593,307.63,400,309.89
		z"/>
	<path d="M427,264.89c-1.783,3.216-4.928,5.071-9,6C418.517,266.407,422.453,265.343,427,264.89z"/>
	<path d="M367,281.89c0.25,6.114-10.082,3.987-11,0C358.343,280.047,362.363,282.932,367,281.89z"/>
	<path d="M429,294.89c-4.064,2.27-7.266-3.732-11-5C420.748,286.235,428.205,290.472,429,294.89z"/>
	<path d="M296,293.89c1,0,2,0,3,0c0.963,6.963-4.542,7.458-6,12c2.735,2.992,6.607-1.335,11,0c1.631,6.382-10.726,4.523-12,2
		c-2.58,0.086-1.052,4.281-5,3c-1.874-1.904-0.109-2.512,0-5c-8.795-2.988-12.181-0.107-21,1
		C270.397,296.954,295.844,308.067,296,293.89z"/>
	<path d="M371,296.89c-1.662,2.005-2.686,4.648-6,5C365.623,298.847,367.22,296.778,371,296.89z"/>
	<path d="M280,306.89c1.23,0.437,2.054,1.28,2,3c-5.186,3.398-11.666,2.812-17,0C268.814,307.704,276.599,309.489,280,306.89z"/>
	<path d="M396,312.89c1.76,0.241,2.279,1.721,2,4c-3.244,1.465-8.914,1.472-9-3C391.181,314.421,395.468,316.31,396,312.89z"/>
	<path d="M268,326.89c-2.497-4.292,3.109-7.889,7-9C274.106,322.33,271.984,325.542,268,326.89z"/>
	<path d="M281,322.89c5.535-0.869,5.675,3.659,10,4c-1.644,5.239-7.583,0.834-10,1C281,326.224,281,324.557,281,322.89z"/>
	<path d="M294,323.89c1,0,2,0,3,0c0.418,3.418-0.302,5.698-4,5C292.681,326.571,293.161,325.051,294,323.89z"/>
	<path d="M290,338.89c3.102,0.281,2.604,9.33,1,11C286.148,348.908,291.809,343.272,290,338.89z"/>
	<path d="M296,338.89c3.16,0.189,2.32,7.387,1,9C295.162,346.379,294.042,341.142,296,338.89z"/>
	<path d="M284,339.89c2.709,1.816-0.554,6.034-1,8C280.208,345.993,283.185,341.487,284,339.89z"/>
	<path d="M300,351.89c-3.983,18.361-30.256,1.474-37-5C271.867,347.957,286.934,360.877,300,351.89z"/>
	<path d="M313,451.89c-2.338-0.33-4.131-1.201-6-2C308.314,447.011,313.005,448.169,313,451.89z"/>
	<path d="M200,458.89c-3.553-0.113-4.024-3.311-4-7C200.098,451.388,201.637,456.751,200,458.89z"/>
	<path d="M311,495.89c-0.322-4.104-3.035-7.146-4-13C309.886,485.755,313.269,490.888,311,495.89z"/>
	<path d="M227,502.89c1.443-2.953,4.027,1.191,3,4C226.064,508.494,229.652,502.572,227,502.89z"/>
	<path d="M244,510.89c3.646-1.283,5.511,7.801,8,11C247.439,520.119,246.951,514.271,244,510.89z"/>
	<path d="M253,518.89c4.54-1.465,4.115,6.365,8,10C256.698,531.16,255.859,521.388,253,518.89z"/>
	<path d="M400,582.89c3.646,1.52,1.213,6.48,1,8C398.134,588.525,401.994,585.226,400,582.89z"/>
	<path d="M307,282.89c4.928,3.405,12.941,3.727,11,14c-5.713,3.817-12.023,11.235-21,6c3.232-4.768,13.582-2.419,16-8
		c0.096-4.763-4.59-4.744-5-9c-10.579,11.234-47.674-8.702-50,20c-1.333,0-2.667,0-4,0c-2.276,15.012,1.918,22.496-3,34
		c6.511-5.356,5.071-13.017,8-21c4.536,0.797,3.247,7.419,5,11c-3.674,3.993-6.194,9.14-9,14c4.176,9.158,10.987,15.68,16,24
		c3.775-0.935,4.695-0.056,7-1c-2.779-3.221-6.686-5.314-9-9c6.445,0.233,16.078,5.913,22,10c6.239-1.428,9.341-5.992,12-11
		c-4.648-1.257,1.113-5.35,1-7c-0.209-3.075-5.236-13.291-6-20c-0.477-4.194,1.048-8.013-4-10c-4.602,0.452-7.962,1.825-11-1
		c-2.133,2.313-9.679,7.22-5,10c-1.891,3.401-3.505-1.712-6-1c0.91-7.488,10.074-13.745,17-9c3.952-0.319-0.741-3.095,2-4
		c3.817-0.817,3.872,2.128,5,4c2.308-1.025-0.028-6.695,4-6c0.418,5.192,3.391,12.23,2,16c0.891-0.777,2.258-1.075,4-1
		c12.09,14.577,7.225,46.109,23,57c-3.078,0.745-1.922-2.745-5-2c3.303,6.363,6.453,12.881,10,19c21.92-3.746,37.596-13.737,53-24
		c0.236,4.236-2.916,5.083-4,8c10.127-2.206,17.707-6.959,26-11c-1.443,5.556-7.002,6.997-11,10c1.834,3.166,9.135,0.865,12,3
		c-0.139,2.86-4.17,1.829-7,2c0.742,7.591,12.969,3.699,15,10c-2.332,0-4.666,0-7,0c4.092,3.908,6.318,9.683,15,9
		c4.045,9.955,11.365,16.635,16,26c-0.602,8.848-9.949,10.689-14,17c-4.031,6.283-2.166,19.402-14,21
		c-6.367-1.723-4.336-15.357-2-24c-5.621,0.955-7.977-1.357-11-3c2.959-2.178,6.598,0.789,10-2c0.494-6.492-0.859-11.141-2-16
		c-2.109,0.994,2.59,6.74-4,5c0.576,2.092,2.479,2.854,2,6c-2.695-2.305-5.645-4.355-7-8c-4.617,0.051-3.635,5.697-9,5
		c3.543,9.322,12.064-1.422,17,5c-17.715,8.289-28.697-8.711-26-27c-19.016,10.982-35.078,24.922-65,25
		c10.799,4.053,20.701-2.371,32,3c0,2,0,4,0,6c1.574,4.717,8.344,12.203,10,19c1.441,5.908,1.992,16.104-5,19
		c6.227-13.15-1.273-22.008-6-32c-1.445-2.65-2.232,3.672-6,2c0.898-3.436,4.322-4.346,4-9c-0.529-0.805-1.043-1.623-1-3
		c-8.711,0.16-16.629,0.469-27,1c-2.648-6.686-12.561-6.105-15-13c-3.156-0.488-3.531,1.803-7,1c2.871,2.129,7.595,2.404,11,4
		c-2.893,3.764-2.893,2.236,0,6c-10.014,1.348-14.182-3.15-19-7c-0.746,2.119,4.716,6.586,7,9c-2.714,2.646-6.491-2.127-7-5
		c-3.853,1.123,3.853,3.875,0,5c-3.031-0.303-2.809-3.857-6-4c-3.048,1.223,1.462,3.816-1,5c-4.773-3.109,1.082-10.725-4-13
		c-2.701,0.301-1.793,4.207-4,5c2.096,6.236,8.193,8.475,10,15c9.463,1.203,17.644,3.688,24,8c-3.947,3.936,1.49,11.133-5,12
		c2.996-4.496-3.42-8.93,1-12c-4.342-1.01-4.457,2.209-6,4c0.641,6.232,3.802,6.02,2,13c3.391,1.609,7.951,2.051,13,2
		c2.064-6.936,0.42-17.58,2-25c3.213-0.881,1.371,3.295,4,3c2.732-1.414-3.465-10.424,3-10c0.371,11.289,10.381,16.021,8,27
		c2.297-1.371,3.215-4.117,5-6c-2.111-8.557-10.857-10.477-10-22c3.568,4.096,9.521,14.209,16,9c2.484,5.85,6.119,10.549,10,15
		c-3.299,5.762,0.404,8.238,2,14c-9.514-4.818-4.988-23.678-18-25c0.527,3.473,2.709,5.291,4,8c-0.016,2.984-2.6,3.4-3,6
		c2.219,6.553,7.445,11.627,5,20c26.496,5.133,61.195,6.4,90,6c-2.713,1.621-5.635,3.031-7,6c28.889-4.686,52.699,20.887,34,42
		c-0.127,1.793,1.225,2.109,1,4c-5.279,0.023-12.709,2.207-16,1c-0.098,12.525,2.572,30.479-1,42c-5.568-0.539-8.533-4.037-11-3
		c-1.818-4.547-0.266-8.689,1-14c-5.611-0.723-1.367-11.299-4-15c2.217-0.551,1.424,1.908,3,2c0.182-2.182-0.818-3.182-3-3
		c-1.98,10.676,0.818,17.693,1,31c1.807,1.299,3.67,0.482,8,1c-3.771,3.896-12.91,2.422-19,4c6.156,3.617,15.869-2.531,21,0
		c-10.082,4.988-32.299,4.793-50,6c-13.502,0.92-27.154,4.287-38,4c-31.93-0.848-62.667-14.547-92-17c-0.841-2.492-1.309-5.357-1-9
		c-3.396-0.271-8.107,0.773-10-1c-2.687,2.441,1.751,6.207-2,8c-0.89-0.775-2.258-1.074-4-1c3.093-4.605-1.738-8.557-2-13
		c-2.074,2.156,2.1,10.688-1,14c-4.31-2.717-7.78-0.475-12,2c-2.544-0.123-3.878-1.455-4-4c-4.916,6.588-17.389,3.725-22-1
		c-11.304,5.336-25.08-3.365-34-7c0.556-2.443,2.346-3.652,4-5c-6.843-15.838-20.555-30.506-19-55c0.436-6.867,2.664-13.332,3-20
		c0.744-14.736-5.793-26.896-5-45c-0.162-1.172-1.823-0.844-3-1c0.982-3.213,2.847-2.434-1-4c0.65-1.018,2.299-1.033,2-3
		c9.939,4.797,31.976,9.861,44,3c-4.098-3.762-16.236-4.365-22-7c2.448,6.188,11.534,1.654,15,8c-16.421-2.801-29.958-0.766-41-11
		c2.236-4.473-2.709-5.002,0-9c2.812,0.188,2.737,3.264,5,4c3.686-5.418-3.805-7.277-3-15c3.422-0.422,3.005,2.994,5,4
		c-3.521-5.854-1.243-12.8-3-19c-2.773,8.708-2.613,15.148-5,21c-12.07-27.999,13.973-48.147,14-77c4.771-12.91,9.374-30.557,28-30
		c-2.906,3.76-7.521,5.812-10,10c-0.396,2.396,4.555-0.555,3,3c3.635-4.698,6.613-10.054,13-12c2.123,2.877,2.637,7.363,7,8
		c1.845-4.87-7.398-7.25-7-14c-5.044-0.711-5.591,3.075-11,2c5.843-9.95,18.777-14.212,32-9c-0.91-1.757-3.504-1.829-5-3
		c1.816-2.709,6.034,0.554,8,1c-1.525-5.142-9.225-4.108-13-7c2.333-10.842,13.548-17.545,15-26c2.833-0.167,4.167-1.833,7-2
		c-0.658-2.995-2.138,0.956-4,0c10.498-6.332,11.204-17.242,28-18c-0.658-1.342-2.138-1.862-4-2c1.425-2.899,15.259,2.005,15,4
		c2.888-0.629,5.164-3.789,7,0c1.44-0.226,0.349-2.984,2-3c4.861,0.371,2.333,2.336,5,4c1.484-0.437-0.395-1.28,0-3
		c2.754,1.913,5.246,4.087,8,6c-3.61-11.202-20.888-12.149-33-17C279.483,237.105,302.335,254.1,307,282.89z M290,257.89
		c-0.667,0-1.333,0-2,0c-0.224-1.891,1.127-2.206,1-4c-2.214-2.453-7.167-2.167-10-4C281.73,252.849,286.666,258.861,290,257.89z
		 M252,255.89c1.729,4.292,10.699,6.607,14,6C260.994,260.309,257.504,253.876,252,255.89z M254,274.89c2.888,1.107,9.53,2.087,11-1
		c-3.162,0.105-6.839-4.417-9-2C259.085,272.892,253.831,273.539,254,274.89z M220,296.89c-15.873-9.953,10.663-25.197,18-12
		c1.499-2.168,5.004-2.329,5-6c-6.172,0.379-6.948-5.48-12-6c-5.552-0.571-9.982,5.25-17,5c-2.917,12.396,5.435,19.985,8,30
		c15.489-7.844,22.116-24.551,41-29c-17.505-5.408-24.779,11.077-33,21c-6.493,1.725-8.737-2.339-8-5
		C221.789,296.012,220.89,296.447,220,296.89z M273,285.89c1.738-3.493,6.944,2.275,7-2c-2.705,0.292-5.716-4.178-8-1
		C275.125,282.584,269.458,285.779,273,285.89z M220,291.89c3.604-0.396,6.372-1.628,7-5c-2.409,0.409-2.174-1.826-5-1
		C220.612,287.168,221.388,290.612,220,291.89z M225,315.89c6.86,8.903,13.896,23.797,23,26c-3.317-1.437-11.398-16.495-5-12
		c-0.8-4.838,1.2-12.082,0-14c-2.977,3.356-2.233,10.434-5,14c-1,0-2,0-3,0c-4.068-7.972-3.127-17.104-3-25
		c-1.519,5.258-4.008,6.711-10,5C219.925,313.561,223.108,313.722,225,315.89z M205,351.89c-2.485-1.181-1.003-6.33-4-7
		c-4.418,10.582-8.526,21.474-15,30c2.612,8.118-2.27,16.736-3,22c6.169-5.498,5.481-17.852,8-27c12.938-8.292,28.081-31.087,16-49
		c2.059-3.721,5.072,3.892,5-1c-0.777-3.261-7.591-5.691-11-3C211.933,325.216,207.576,343.538,205,351.89z M204,344.89
		c0.067-6.4-0.933-11.734-3-16C201.431,334.792,200.659,341.898,204,344.89z M187,364.89c-2.572,1.832-4.238-1.142-5,3
		c3.078-0.7,1.922-0.7,5,0c3.142-8.766,4.732-20.796-1-27C188.006,347.218,186.568,356.988,187,364.89z M170,351.89
		c0.221-0.779,0.837-1.163,2-1c-0.729-2.271,1.802-7.802-2-7C171.298,349.05,168.852,349.774,170,351.89z M239,374.89
		c-2.397-6.889-4.914-20.016-11-30C231.945,358.249,231.093,365.351,239,374.89z M184,355.89c1.107,7.722,1.152-6.067,1-9
		c-0.221-0.779-0.837-1.163-2-1C182.409,350.147,183.719,352.504,184,355.89z M256,381.89c0.459-4.897-7.321-18.602-10-27
		c0.06-1.803-0.568-9.59-5-6C246.053,359.837,251.188,370.702,256,381.89z M213,355.89c4.773,0.496,2.257-5.192,1-7
		C213.681,351.238,212.42,352.644,213,355.89z M194,385.89c-0.407,2.262-4.426,16.641,3,22c1.084-2.561-3.038-4.767,0-6
		c0.838,4.162,2.057,7.943,6,9c0.333-3.067-5.69-4.887-2-8c0.553,1.78,0.514,4.153,2,5c0.959-3.371-3.063-6.831,0-9
		c-0.092,5.426,3.17,7.496,3,13c-1.182,1.151-3.535,1.132-6,1c1.356-5.605-4.902,0.378-6-4c-0.157-1.177,0.172-2.838-1-3
		c-4.409,9.264,6.337,8.828,13,10c0.105-5.304,0.566-1.182,2,0c-0.382-3.715,4.052-2.614,3-7c-3.555-1.555-0.604,3.396-3,3
		c0.743-12.423-9.269-23.585-5-33c1.064,9.091,4.573,17.507,6,29c6.29-0.956,3.879,6.788,8,8c2.096-0.904,0.355-5.645,3-6
		c-0.812,3.458,1.867,4.222,0,6c7.231-0.376-0.411-6.363,4-7c-0.519-4.18-4.771-2.744,0-5c-1.496-0.17-3.69,0.357-4-1
		c1.267-3.15,3.38,0.796,3-4c-0.111-3.542-3.306,2.125-3-1c0.426-1.907,2.857-1.81,2-5c-1.966-0.299-1.983,1.35-3,2
		c-0.119-7.826-10.663-27.058-3-23c2.18-2.091-0.5-2.854,0-6c-3.555-1.555-0.604,3.396-3,3c-1.594-4.406-2.502-9.498-4-14
		c-3.566,7.47,5.069,23.847,5,31c-5.256-6.744-4.128-19.872-10-26c0.464,2.27,2.191,8.385,1,9c-2.156-0.844-0.844-5.156-3-6
		c-3.527,4.305,1.946,12.38,0,15c-2.613-1.387-2.833-5.167-4-8c0.776-0.224,1.973-0.027,2-1C191.536,369,195.061,379.995,194,385.89
		z M215,381.89c5.609-2.275,0.542,6.125,5,5c-0.336-8.054-0.631-11.369-4-15C213.896,375.498,219.083,379.029,215,381.89z
		 M227,355.89C229.104,367.7,233.663,364.178,227,355.89L227,355.89z M220,377.89c7.364,6.969,4.096,24.571,13,30
		c-4.89-15.306-8.755-30.932-12-48c-1.753,0.276-4.99-2.816-6,0C218.514,365.397,221.726,374.641,220,377.89z M228,369.89
		c0.588-2.101-0.826-9.469-4-11C225.507,362.383,225.379,367.511,228,369.89z M173,389.89c-1.262-7.27,1.541-17.144-4-22
		C170.827,376.221,166.926,383.608,173,389.89z M271,403.89c0.606,0.576,4.744,2.34,5,0c-5.399,0.852-1.746-3.304-2-5
		c-1.169-7.804-10.189-15.081-11-21c-0.317-2.316,1.79-1.49-1,0c1.09-4.073,0.686-7.406-2-10
		C259.341,380.364,268.029,389.718,271,403.89z M278,372.89c-1.161-0.839-2.681-1.319-5-1
		C272.513,376.042,276.537,374.489,278,372.89z M180,383.89c1,0,2,0,3,0c1.399-3.18,1.504-8.946-1-11c-1.727,0.606,0.077,4.743-2,5
		c-1.449-1.218-1.34-3.994-4-4c0,3.667,0,7.333,0,11c4.595,0.396,3.004-5.389,4-6C182.931,379.737,179.402,382.11,180,383.89z
		 M237,404.89c-2.437-10.229-5.438-19.896-10-28C229.332,385.143,230.563,401.608,237,404.89z M241,392.89
		c-0.233-3.316-3.274-6.825,0-8c-3.34,0.007-2.65-4.017-5-5C237.823,384.067,237.872,390.019,241,392.89z M245,388.89
		c-1.151-2.182-0.198-6.468-3-7C242.039,385.185,241.591,388.966,245,388.89z M261,390.89c0.054-2.787-2.005-8.572-4-6
		C259.242,385.981,258.758,389.799,261,390.89z M275,386.89c-0.169,2.503,1.536,3.13,3,4c0.956-1.862-2.995-3.342,0-4
		c0.485,1.182,1.066,2.267,2,3c1.271-1.386,4.887-2.833,1-4c-1.432,5.159-1.556-1.11-2-1
		C278.342,386.232,276.862,386.752,275,386.89z M389,387.89c3.213,1.787,6.053,3.948,10,5c0.41-2.409-1.826-2.174-1-5
		C394.544,387.499,391.072,384.203,389,387.89z M279,405.89c1.318-5.867-3.264-13.911-7-18
		C273.893,394.331,275.139,401.418,279,405.89z M370,393.89c4.422-1.803,9.701-0.775,13,3c-1.73,2.462,0.127,8.017,4,8
		c2.975-5.477-2.848-7.662-3-13c3.338,1.004,3.279-1.388,3-4C381.103,390.82,371.251,389.274,370,393.89z M243,392.89
		c4.777-0.777,1.751,6.249,5,7c0.239-4.239-0.079-7.921-3-9C244.988,392.212,243.247,391.804,243,392.89z M265,400.89
		c1.386-4.51-3.889-4.993-1-8c-1.862,0.956-3.342-2.995-4,0C263.466,393.757,262.189,399.367,265,400.89z M285,396.89
		c-0.071-2.929-0.362-5.638-4-5c0,1,0,2,0,3C282.479,395.411,283.521,396.37,285,396.89z M191,409.89
		c-4.026-5.758-0.232-12.691-3-16C186.335,399.482,186.817,407.304,191,409.89z M331,401.89c-2.668-1.041-2.881-9.728-6-7
		C328.826,396.989,325.505,405.368,331,401.89z M329,404.89c2.547,5.793,8.062-1.402,11,4c7.375-4.964,23.197-6.795,25-14
		C355.171,401.601,341.531,406.1,329,404.89z M290,405.89c-0.563-2.658,4.113-5.092,1-7C290.73,400.714,287.4,404.496,290,405.89z
		 M374,415.89c1.725-3.276,5.768-4.233,8-7c-1.666-1.667-1.854-4.812-4-6C379.519,409.437,372.416,412.604,374,415.89z M398,404.89
		c1.877,3.118,5.576,6.33,3,11c5.508,1.159,4.602,8.73,11,9c-3.266,6.527,3.43,10.867,4,18c0.684,8.533-6.906,18.311-2,26
		c0.613-6.404,12.387-6.926,9-14c-0.016,1.527-7.41,2.191-6-1c1.549-1.785,6.002-0.664,7-3c2.096-13.246-9.018-20.645-4-35
		C409.218,414.314,409.472,400.017,398,404.89z M158,410.89c6.971-0.029,10.057-3.943,14-7c-2.833,1.042-4.167,1.042-7,0
		C164.569,410.34,159.691,406.628,158,410.89z M246,417.89c-3.462-3.344-4.589,1.287-7,2c-2.806-0.013,2.381-2.729-2-2
		c-19.731,5.727-42.327-0.931-62-6c5.314-0.116,0.804-0.188,1-3c2.923,2.629,5.236-1.414,5-5c-6.358,4.271-15.726,14.072-26,8
		c-2.091,2.466-5.454,4.766-3,9c2.409,0.409,2.174-1.826,5-1c16.829-0.94,0.176,0.589-4-3c7.971,0.706,22.884-2.001,30,1
		c-2.037-0.854-6.213,0.871-3,2c1.096-1.406,9.602-0.909,15-1c1.004,2.822,1.465,2.506,2,4
		C213.399,422.56,232.858,429.955,246,417.89z M255,406.89c-2.306,0.306-1.111-2.889-3-3c-0.725,3.059,1.725,2.941,1,6
		c4.654,1.604,2.747-7.256,1-4C254.61,405.947,255.184,406.04,255,406.89z M311,433.89c-8.338-7.328-11.789-19.543-17-30
		c-1.395,4.605-2.054,9.946-7,11C295.199,420.362,304.673,429.876,311,433.89z M310,409.89c-0.07-2.929-0.361-5.638-4-5
		C306.625,407.265,307.345,409.545,310,409.89z M241,412.89c2.729,0.09,2.013-1.666,4,0c0.331-2.425-1.11-8.095-2-6
		C244.48,410.022,243.04,410.978,241,412.89z M387,429.89c4.471,2.547,7.648-0.584,12-1c-2.785-6.863-1.832-14.061,1-20
		C386.722,398.811,387.228,419.182,387,429.89z M272,413.89c-0.164-1.641,6.164-1.641,6,0c-0.933,1.067-3.689,0.311-3,3
		c1.742,0.075,3.11-0.223,4-1c-0.154,4.209,9.594,9.652,15,8c-6.247-3.419-12.31-7.023-15-14c-0.499,3.458-4.904,1.469-2-1
		C274.088,408.711,270.167,412.633,272,413.89z M260,415.89c2.593-2.073,6.617-2.717,8-6c-3.156-0.489-3.531,1.802-7,1
		C262.664,414.031,257.281,414.976,260,415.89z M417,411.89c1.859,2.142,6.195,1.805,7,5c0.217,7.85,0.646,9.814,3,16
		c5.205-6.668-1.023-12.601-2-19C423.65,412.667,415.033,409.987,417,411.89z M241,427.89c2.709-3.625,9.183-3.484,13-6
		C247.891,421.47,240.199,424.724,241,427.89z M318,421.89c-0.629,6.297,3.449,7.885,4,13c3.246,0.58,4.652-0.682,7-1
		c-0.541-4.125-2.559-6.773-5-9c-0.598,1.779,2.932,4.152,0,5C321.58,424.757,322.509,426.009,318,421.89z M235,432.89
		c6.005-1.328,12.733-1.934,17-5C244.499,429.187,238.158,429.382,235,432.89z M299,427.89c-3.694,0.639-9.96-1.295-12,1
		C289.937,428.794,298.09,432.431,299,427.89z M269,429.89c1.683,4.221,0.152,5.709,3,8c-0.599-3.873,5.685-7.137,1-9
		C272.814,430.371,270.583,429.806,269,429.89z M428,441.89c1.578-3.414,10.555-7.855,5-12c0.342,4.342-2.752,5.246-6,6
		c0.004-0.555-0.809-1.135-1,0C428.832,435.726,425.169,442.054,428,441.89z M184,433.89c3.114,1.221,6.339,2.328,11,2
		C192.765,432.267,187.831,431.439,184,433.89z M184,436.89c-2.787,0.373-6.085-3.809-8-1
		C177.966,436.335,182.184,439.599,184,436.89z M237,441.89c5.985,0.18,22.953-2.271,24-7
		C255.215,439.439,241.682,436.24,237,441.89z M165,437.89c5.288,0.732,13.193,4.113,17,3
		C176.304,437.863,165.313,436.044,165,437.89z M258,445.89c3.038,12.295,5.71,24.957,11,35
		C265.535,469.023,263.636,455.587,258,445.89z M274,486.89c-1.463-14.58-5.119-35.516-13-47
		C262.769,456.345,267.445,472.289,274,486.89z M276,477.89c-2.342-15.863-4.609-25.686-10-38
		C268.711,453.179,271.322,466.568,276,477.89z M197,443.89c-1.772-0.801-11.073-2.797-9-1
		C190.269,443.894,195.063,448.648,197,443.89z M210,442.89c4.259,0.408,8.871,0.461,12,2c-7.619-0.006-11.154,2.25-18-1
		c6.057,9.777,22,1.916,30-1C226.583,442.109,214.405,440.894,210,442.89z M268,488.89c-3.998-15.336-8.942-29.725-13-45
		c-1.182-0.145-2.267-1.779-3,0C258.222,458.001,260.831,475.726,268,488.89z M199,447.89c-11.113,3.555-18.346,10.986-28,16
		c-8.959,12.66-19.41,43.281-17,67c1.346,13.244,12.052,22.871,13,34c2.488-0.404,4.572,7.711,5,3c-5.739-9.6-12.775-26.555-16-42
		c2.182-0.639,3.182,2.834,3-1c1.052-28.105,2.702-52.117,24-62c-1.059,6.273-4.371,10.295-8,14c1.717,3.422-1.099,6.195,1,10
		c-13.087,22.066-7.764,54.193,2,76c3.507-20.344-10.695-37.748-5-60c4.365-3.969,5.25-11.418,6-19c0.738-1.596,4.895,0.229,4-3
		c-6.814-3.477,0.56-16.959,7-17c1.536,3.914-3.806,8.584-2,16c2,0,4,0,6,0c-0.391-4.951,5.903-11.537,3-19
		c4.546-1.455,7.378-4.623,11-7c5.564,7.77,12.341,14.326,14,26c-1.768,1.877-2.919-1.189-5,1c0.732,9.732-0.798,17.201-4,23
		c-12.332,5.334-14.558,20.775-17,36c7.625-8.375,6.861-25.141,18-30c3.318,2.764-1.845,8.896,0,10c3.501-6.604,5.802-12.25,4-22
		c12.8-14.916,3.435-34.18-6-47c-5.771-0.229-11.095-0.904-12-6C205.361,442.925,194.889,445.203,199,447.89z M263,493.89
		c0.211-1.209,1.11-0.615,2,0c-4.457-17.543-8.646-35.354-16-50C250.051,459.583,261.019,479.103,263,493.89z M234,491.89
		c-1.182-0.145-2.267-1.779-3,0c3.842,3.699-1.271,16.842,5,14c-0.957,4.736,1.954,5.475,3,10c-4.512,0.512-1.472-6.527-5-7
		c-0.55,9.168,1.943,14.574,3,19c-3.312-4.191-9.327-10.441-9-15c3.379-0.322,2.73,8.525,6,5c-4.116-13.787-3.543-23.744-9-31
		c-1.685,9.064-1.523,28.754,3,36c-2.63,0.295-0.787-3.881-4-3c-1.5,7.846,10.273,14.758,10,19c-4.763-1.59-6.382-11.594-11-10
		c8.363,7.045,8.056,18.443,17,26c0.92-1.746,3.126-2.207,6-2c3.401,5.275,5.783,16.869,10,18c-1.586-2.918-8.189-17.029-4-13
		c0.355-4.723-2.862-6.467-4-7c1.322-0.012,0.914-1.754,2-2c7.325,3.959,1.506,15.041,8,20c-0.153-3.182-2.267-4.398-2-8
		c4.571,0.764,2.449,8.219,7,9c-1.574-9.051-7.485-13.617-7-22c3.354,5.646,5.638,12.361,9,18c2.204-2.111-1.283-2.957-1-6
		c2.483,0.15,4.15-0.518,5-2c-4.887-0.447-7.38-3.287-9-7c4.836-2.359,1.376-10.504,0-10c2.051-0.949,3.541-2.459,4-5
		c-1.78-0.553-4.153-0.514-5-2c0.241-1.76,1.721-2.279,4-2c1.134,3.893,4.043,11.254,6,11c-0.314-1.352-1.423-1.91-1-4
		c2.002,1.438,9.266,0.611,7-3c-1.151,3.234-1.132-2.686-1-4c-9.266-5.4-6.816-22.518-18-26c3.072,11.062,15.3,23.182,13,33
		c-5.477-9.031-6.387-21.59-16-30c-0.956,1.861,2.995,3.342,0,4c-0.977-3.312-1.977,1.117-3,1c1.146-3.146-1.57-2.43-2-4
		c2.044-5.697-0.747-9.881,1-15c-0.409,2.408,1.826,2.174,1,5c2.656-0.012,5.711,0.377,7-1c-1.879-19.457-12.693-35.305-15-51
		c6.064,17.479,16.214,38.557,17,55c6.964,3.035,6.462,13.537,12,18c-4.163-0.568,1.007,10.25,2,5c-1.151,6.273,2.782,5.242,5,6
		c-5.465-9.867-8.927-21.74-15-31c-0.113,1.221-0.299,2.367-2,2c0.003-1.004-0.81-1.189-1-2c1.702-21.125-10.35-36.918-14-56
		c-3.101-0.102-4.777,1.223-7,2c0.332,5.357,4.819,11.816,3,16c-0.388-6.279-4.012-9.32-4-16c-1.753,0.914-4.99,0.344-6,2
		c1.414,5.936,6.29,13.689,5,19c-2.504-6.496-3.395-14.605-8-19c0.653,7.977,8.17,18.758,5,24c-1.421-8.58-5.812-14.188-6-24
		c-3.042,1.957-10.404-0.404-12,3c3.338,2.328,2.563,8.771,7,10c1.262-5.395-0.123-4.266,4-8c1.024,12.314,8.679,23.312,8,34
		c-2.017-8.648-4.635-16.697-8-24C228.955,473.601,231.367,482.857,234,491.89z M229,538.89c-4.028-5.639-6.282-13.051-12-17
		C220.787,527.769,224.003,534.22,229,538.89z M290,539.89c-2.192-7.709-6.934-12.18-6-19c0.224,0.775,0.027,1.973,1,2
		c0.83-11.086-7.184-22.023-13-32c-0.221,0.779-0.837,1.162-2,1c0.889,4.188,9.597,11.416,6,16c-0.468-2.768-2.919-6.24-5-10
		c0.537,4.836-0.848,3.805-3,2c1.937,19.686,16.738,32.873,17,52c2.361-3.658,11.418-5.889,10-10c-0.914,1.752-1.859,3.475-5,3
		c-0.043-1.377,0.471-2.195,1-3c-3.761-0.762-0.69,5.311-5,4c-1.432-5.943-3.589-15.412-5-20
		C285.245,528.662,285.786,540.417,290,539.89z M277,454.89c0.225-3.559-0.674-5.992-3-7
		C274.865,450.359,273.744,454.812,277,454.89z M176,458.89c0.905-1.762,3.681-1.652,4-4c-1.453,0.547-5.168-1.17-5,1
		C178.125,455.583,172.458,458.779,176,458.89z M291,467.89c2.559-1.441,2.282-5.719,3-9c-4.32-1.68-10.036-1.965-14-4
		c2.428,9.729,0.981,11.217,4,20c3.981-1.352,3.526-7.141,7-9C291.102,467.011,289.546,467.447,291,467.89z M163,473.89
		c0.53-6.479,1.538-9.236-1-14C161.765,464.357,161.062,469.416,163,473.89z M317,480.89c2.131-4.203,6.613-6.055,9-10
		c-3.984-2.35-2.371-10.297-8-11C317.148,465.72,315.267,475.8,317,480.89z M324,478.89c3.205,0.398,5.709-4.256,2-5
		C324.98,475.205,325.019,477.578,324,478.89z M302,504.89c-5.726-9.23-3.529-20.922-13-27
		C292.416,486.669,296.682,501.507,302,504.89z M308,525.89c-0.223,0.775-0.027,1.973-1,2c-6.248-16.752-10.895-35.104-22-47
		c1.075,10.758,13.244,23.967,14,35c-6.917-10.41-8.404-22.111-18-31c5.993,13.1,10.399,32.812,20,39c2.084,3.25,0.988,9.68,5,11
		c0.326-2.408,7.264-3.312,4-6c-0.871,3.58-6.283,0.316-4-1C306.613,531.498,311.607,526.501,308,525.89z M323,494.89
		c-1.305-3.361-1.369-7.965-4-10c1.004,0.002,1.191-0.811,2-1c1.889,0.111,0.695,3.307,3,3c0.023-2.355-1.723-2.943-1-6
		c-3.189-0.857-3.092,1.574-5,2C317.953,487.964,321.181,495.005,323,494.89z M312,497.89c0.17-1.496-0.357-3.689,1-4
		c2.5,6.5,4.611,13.391,8,19c-2.561-11.439-6.533-21.467-11-31c-3.141,0.857-10.338-2.338-9,3
		C308.503,483.083,306.576,494.812,312,497.89z M330,490.89c-0.299-4.033-0.367-8.299-4-9
		C327.171,485.052,327.828,488.728,330,490.89z M186,494.89c-2.231-3.723-0.397-6.723-4-10
		C182.569,489.468,182.223,492.005,186,494.89z M321,501.89c-0.957-5.727-2.74-15.902-7-15
		C318.017,490.207,316.384,499.171,321,501.89z M190,502.89c-4.411-3.654-4.144-6.314-9-10c-1.107,4.227-1.152,9.516-1,15
		c5.798,2.35,11.248,9.885,10,16c6.241-6.1-0.314-12.975,8-17c-2.992-5.676-3.824-13.51-8-18
		C187.304,493.66,191.002,500.458,190,502.89z M281,495.89c-2.039-0.629-0.281-5.053-4-4C276.023,494.96,280.757,497.339,281,495.89
		z M340,496.89c-3.959,7.373-12.314,10.352-11,23c12.758,3.912,32.924,5.738,49,3c-4.412-6.699-11.393-14.072-20-13
		c-8.275,1.031-7.322,9.312-14,13c-0.242-10.242,7.322-12.678,13-17c10.258-1.18,22.518,1.479,34,2c10.883,0.494,24.617,2.891,30-5
		C389.687,505.833,368.755,500.906,340,496.89z M282,499.89c0.061,8.729,9.638,23.312,12,31c0.646,2.102-2.422,3.604,1,2
		C294.343,521.191,287.188,507.9,282,499.89z M323,512.89c2.717-0.717-0.715,4.717,2,4c-0.576-2.672,2.959-6.248,0-8
		C326.146,512.037,323.429,511.32,323,512.89z M458,521.89c-9.744-23.385-67.365-6.309-90-12c19.297,3.346,18.42,28.154,9,42
		c24.74-0.836,50.182-1.07,76-3C459.521,543.365,460.494,527.875,458,521.89z M291,533.89c-1.607-4.061-2.017-9.316-5-12
		c0,0.666,0,1.332,0,2c-0.61,0.057-1.184,0.148-1,1C289.932,526.597,286.117,531.548,291,533.89z M321,548.89
		c16.131,1.602,12.42-30.549-1-25C310.736,527.72,313.005,548.095,321,548.89z M311,547.89c-6.383,18.617-30.161,19.838-48,27
		c-0.578,6.238-0.285,8.859-2,15c27.543-1.057,58.287,9.795,88,13c0.609-21.729-3.549-54.273,1-75c-3.582-0.084-5.777-1.557-9-2
		C353.685,544.785,324.695,563.992,311,547.89z M206,555.89c-1.042-12.354,5.379-19.234,5-29
		C209.682,535.83,196.522,548.824,206,555.89z M214,533.89c3.078,0.699,1.922,0.699,5,0c-1.13-2.203-1.15-5.518-4-6
		C215.725,530.949,213.275,530.832,214,533.89z M356,538.89c-0.104,3.438-0.516,7.182,2,8c-1.219,0.113-2.367,0.299-2,2
		C361.755,547.593,359.121,541.49,356,538.89z M362,547.89c1.432-4.164,1.094-17.035-1-20
		C360.669,532.289,358.656,545.283,362,547.89z M366,544.89c-0.1-4.867-0.965-11.064,0-17
		C362.937,527.533,362.937,545.25,366,544.89z M304,549.89c-1.904,0.43-2.512,2.154-5,2c-0.105-2.562-0.566-4.768-2-6
		c-1.881,3.453-2.387,8.279-5,11c-3.079-1.824,2.009-5.605-1-7c-1.904,3.096-6.602,3.398-7,8c13.753,7.389,23.31-6.33,27-18
		c-1.32-0.012-0.914-1.754-2-2C305.982,540.175,300.847,544.654,304,549.89z M276,539.89c-0.057,5.084,4.984,10.312,4,13
		c-1.427-0.391-1.687-1.199-3,0c-0.566-4.131-5.352-9.273-6-10c0.705,4.627,3.295,7.371,4,12c-1.003-0.004-1.19,0.811-2,1
		c-1.397-0.289-4.653-5.9-3-3c-0.022,2.355,1.723,2.943,1,6c4.636-1.031,7.789-3.545,11-6
		C280.357,548.201,278.938,543.287,276,539.89z M217,549.89c-3.207-0.176-3.238-8.695-6-6
		C213.241,545.033,213.578,553.246,217,549.89z M331,550.89c5.541,0.83,3.248-7.139,1-5C334.498,546.582,330.144,548.556,331,550.89
		z M366,551.89c5.562-2.83,1.092,9.484,5,5c-3.799-3.223,2.322-4.943,1-9c-2.318,0.318-3.838-0.162-5-1
		C367.41,549.298,365.173,549.064,366,551.89z M355,557.89c1.576-2.287,2.938-4.748,1-8c-0.156,1.178,0.172,2.838-1,3
		c0.004-0.557-0.809-1.135-1,0C357.412,553.306,352.488,558.375,355,557.89z M231,560.89c-0.003-0.557,0.81-1.135,1,0
		c0.057,0.609,0.149,1.184,1,1c-1.111-4.223-3.073-7.594-6-10C228.854,556.472,229.086,557.669,231,560.89z M380,581.89
		c0.355-8.783-4.961-25.602,2-27c-2.318-0.318-3.838,0.16-5,1c0.156,3.822-0.051,7.281-2,9c-0.334-4,1.285-9.953-3-10
		c-1.33,9.188,1.287,14.516,0,20c-0.318-2.348-1.58-3.754-1-7c-5.176,4.707-1.127,17.781-2,26c-3.422-1.633-3.004,0.119-5,2
		c-0.861-5.527,3.447-5.887,4-10c-3.18,2.904-5.373-4.158-2-6c0.467,1.912-3.082,4.305,1,4c-0.633-3.367,1.289-9.289-1-11
		c-2.512,2.557,1.533,5.465-2,7c-1.121-0.213-1.557-1.109-2-2c0.893-2.197,4.043-7.877,0-9c0.582,6.637-2.059,10.562,0,16
		c-2.279,0.279-3.758-0.24-4-2c3.025-2.162,3.02-15.375,1-18c-2.768,4.758-4.189,8.045,0,13c-5.467,0.732-0.656,9.463-3,15
		c-5.191,0.039-0.551,4.119-4,5c4.629,0.752,1.391-3.82,3-4c2.246,0.42,0.027,5.307,2,6c-2.826-0.182-2.328,3.76-5,1
		c1.58,3.912-2.596,2.07-3,4c2.938,2.426,4.949-1,5-2c6.018,1.844,11.248-1.332,15-1c-0.119-5.123-3.957-2.01-6-1
		c0.85-6.582,4.301-1.166,4-7c-0.182,2.182,0.818,3.182,3,3c0.777-2.225,0.578-5.424,3-6c-1.658,4.846-2.242,6.467-1,11
		c3.35-0.65,6.387-1.613,8-4c0,1,0,2,0,3c6.393,0.332,12.664-2.797,17-4c0.393-0.107,9.326,2.289,4-2c-1.504,6.236-6.887-4.373-8,1
		c1.084-2.562-3.037-4.768,0-6c1.738,5.58,5.896,3.789,10,2c0.193,1.658,3.537,3.176,4,3c-0.676-2.322-3.322-2.678-4-5
		c5.85-8.232-2.305-23.271,1-35c0.668,0,1.334,0,2,0c0.15,9.736-0.232,22.301,3,26c0.297-6.98-2.121-20.832-1-26
		c2.428,0.572-0.469,6.471,3,6c0-1.334,0-2.668,0-4c3.059,0.727,2.941-1.727,6-1c0.711,4.568-1.127,10.145,0,12
		c-4.318-0.848-4.582,2.707-2,4c-0.129-1.797,0.994-2.34,3-2c-0.547,1.453,1.17,5.168-1,5c-4.607-4.051-2.588,2.174-7-3
		c1.006,6.852,3.963,6.787,6,11c3.32-0.324-2.633-4.361,1-5c1.389,1.277,0.613,4.723,2,6c-1.352,0.314-1.91,1.424-4,1
		c2.732,2.98,0.799,6.678,1,8c1.387-3.725,0.15,2.943,2,2c-0.787-3.453,0.936-4.398,3-5c0.941-6.008-2.789-8.256,1-14
		c-4.004-6.625-1.291-15.631-4-22c-7,0-14,0-21,0c-2.896,8.238,2.484,20.635-1,29c-0.088-10.404-2.873-17.559-2-27
		c-4.502-0.172,1.404,5.172-4,5c1.676-1.795,0.262-6.139-2-7c-0.621,2.975,1.627,12.125-2,9c2.385,3.447,2.908,8.984,0,11
		c1.342,0.658,1.863,2.139,2,4c-3.178-2.635-1.979,2.562,0,3c-1.762,1.852-3.096-0.258-4-2c1.412-4.344,0.131-11.34-3-10
		C381.167,571.312,383.837,578.298,380,581.89z M371,566.89C370.955,556.5,366.119,561.333,371,566.89L371,566.89z M422,553.89
		c-0.893,3.865-0.107,12.082,1,17c0.822,6.104,1.082-5.654,1-8c-0.119-3.408-0.992-4.938-1-7c2.545-1.727,3.879,1.523,4-2
		C424.513,554,423.904,555.763,422,553.89z M220,562.89c1.758-0.574,5.875,1.209,6-1c-1.44,0.533-2.44-3.896-3-1
		c0.593,4.539-7.793-7.34-6-4C218.446,558.445,219.103,560.787,220,562.89z M240,561.89c2.018-0.828,5.96,11.488,10,11
		c-1.437-4.844-7.199-10.502-3-15c-4.477,1.479-3.072-2.93-7-2C242.554,558.857,238.346,560.824,240,561.89z M214,561.89
		c-3.132-0.201-4.088-2.578-6-4C208.068,560.554,211.42,565.046,214,561.89z M287,564.89c0.683-3.096-5.729-4.164-7-2
		C280.849,565.042,283.682,565.208,287,564.89z M412,570.89c-0.879-1.977,0.736-10.303-3-8
		C413.072,564.544,407.126,570.037,412,570.89z M194,569.89c0.136-2.863,6.864,0.863,7-2c-2.216-0.816-6.346-1.203-9-4
		C190.678,565.197,191.782,569.183,194,569.89z M184,577.89c4.12,2.758,7.664,9.574,14,7c0.575-4.613-8.842-4.439-5-9
		c7.038,4.541,14.644,17.283,24,8c-1.352-0.98-1.999-2.668-3-4c-3.401,0.299-7.234,7.287-10,2c3.572-0.428,5.488-2.512,7-5
		c-3.333-9.828-17.942-3.021-23-10c-2.928,2.738-3.938,7.396-10,7c1.674-3.324,4.586-5.414,6-9c-7.119,1.215-10.091,6.574-12,13
		C179.637,577.931,186.248,587.056,184,577.89z M207,568.89c5.122,4.545,10.248,9.086,13,16c1.452-2.215,6.6-0.732,7-4
		c-0.779-5.016-4.52,3.123-7-1c1.486-1.182,4.468-0.865,4-4c-0.064-5.27-5.359-5.309-6-10
		C213.085,565.642,209.287,566.509,207,568.89z M232,585.89c-1.008-3.008,2.228-1.771,4-2c2.549-11.229-5.454-17.197-13-15
		C228.402,572.156,229.626,579.597,232,585.89z M247,574.89c-2.678-0.654-3.802-2.863-6-4
		C239.926,574.699,244.845,577.623,247,574.89z M254,507.89c-0.74-2.928-2.418-4.916-4-7
		C249.976,504.582,250.447,507.777,254,507.89z"/>
	<path d="M208,382.89c3.762,6.456,3.182,11.175,5,19C209.192,397.698,209.763,389.127,208,382.89z"/>
	<path d="M307,444.89c2.865-1.576-2.523,2.605-6,1c-0.492,3.141,3.447,2.643,1,5c-2.506-0.826-3.162-3.504-5-5
		C298.386,443.611,303.96,445.517,307,444.89z"/>
	<path d="M261,536.89c-0.87,1.51-1.497-0.275-4,1c-0.138-1.861-0.658-3.342-2-4C257.126,530.871,258.724,536.753,261,536.89z"/>
	<path d="M243,548.89c0.464,3.131-0.869,4.463-4,4c1.724-4.844-7.834-7.541-3-9C237.096,547.351,239.429,550.679,243,548.89z"/>
	<path d="M234,493.89c0.89,0.615,1.789,1.209,2,0c3.224,3.109,2.701,9.967,4,15c-4.876-0.191-0.395-3.537-5-4
		c4.58-0.438-3.053-7.402,2-5C238.915,494.974,233.677,497.212,234,493.89z"/>
	<path d="M249,479.89c1.622,4.848,9.457,16.754,4,19C254.011,493.556,250.032,486.33,249,479.89z"/>
	<path d="M276,509.89c-0.184-0.852,0.39-0.943,1-1c0.851,0.184,0.943-0.391,1-1c3.037,4.521,0.71,8.561,6,10
		C279.013,521.503,278.946,511.64,276,509.89z"/>
	<path d="M245,522.89c-0.973,0.027-0.776,1.225-1,2c-2.562-2.105-3.807-5.525-4-10c1.898,2.77,4.161,5.172,6,8
		C245.81,524.025,244.997,523.447,245,522.89z"/>
	<path d="M249,537.89c-0.083-1.584,0.481-3.814-1-4c0.658-2.996,2.138,0.955,4,0c-2.196,2.104-0.207,4.445,1,6
		C251.819,542.876,252.135,536.232,249,537.89z"/>
	<path d="M398,555.89c5.26,6.227,1.922,16.838,4,26C397.744,575.392,401.208,566.546,398,555.89z"/>
	<path d="M373,575.89c-1.625,3.277,0.227,3.822,0,8C370.832,583.017,369.607,576.937,373,575.89z"/>
	<path d="M385,583.89c-3.088-2.449,2.871,1.1,2-1c1.49,0.301-1.082,4.207,2,5C386.4,591.697,386.38,584.605,385,583.89z"/>
</g>
</svg>
